<?xml version="1.0" encoding="iso-8859-1"?>
<!-- Generator: Adobe Illustrator 19.0.0, SVG Export Plug-In . SVG Version: 6.00 Build 0)  -->
<svg version="1.1" id="Capa_1" xmlns="http://www.w3.org/2000/svg" xmlns:xlink="http://www.w3.org/1999/xlink" x="0px" y="0px"
	 viewBox="0 0 468.004 468.004" style="enable-background:new 0 0 468.004 468.004;" xml:space="preserve">
<g>
	<g>
		<path d="M467.968,143.111L467.968,143.111c-0.006-0.053,0-0.105-0.008-0.158c-0.04-0.317-0.085-0.63-0.154-0.938l-0.042-0.176
			c-0.074-0.3-0.158-0.6-0.26-0.894c-0.019-0.057-0.04-0.112-0.06-0.168c-0.11-0.3-0.233-0.593-0.37-0.88
			c-0.012-0.024-0.02-0.051-0.032-0.075l-48.866-99.979c-1.652-3.483-5.122-5.741-8.975-5.841H67.69
			c-3.605,0.096-6.892,2.083-8.653,5.23L1.286,139.091c0,0-0.006,0.071-0.009,0.077c-0.42,0.74-0.745,1.529-0.968,2.35
			c-0.018,0.064-0.034,0.144-0.05,0.209c-0.084,0.335-0.151,0.673-0.2,1.015c-0.013,0.083,0,0.169-0.007,0.252
			c-0.041,0.404-0.058,0.81-0.05,1.216v45c-0.012,5.397,4.354,9.782,9.751,9.793c0.062,0,0.124,0,0.186-0.001h23.062v224.519
			c0,5.523,4.178,10.481,9.7,10.481h382.044c5.664-0.205,10.174-4.814,10.256-10.481V199.002h23.062
			c5.396,0.092,9.845-4.208,9.937-9.605c0.001-0.062,0.002-0.125,0.001-0.187v-45C468.01,143.843,467.999,143.477,467.968,143.111z
			 M73.456,54.002h329.5l39.062,80H27.292L73.456,54.002z M367.001,414.002h-60v-105h60V414.002z M415.001,414.002h-28V298.596
			c0-5.523-4.971-9.594-10.494-9.594h-79.739c-5.224-0.168-9.595,3.931-9.763,9.155c-0.005,0.146-0.006,0.293-0.004,0.439v115.406
			h-234v-215h362V414.002z M448.001,179.002h-428v-25h428V179.002z"/>
	</g>
</g>
<g>
	<g>
		<path d="M229.001,241.002h-138c-5.523,0-10,4.477-10,10v118c0,5.523,4.477,10,10,10h138c5.523,0,10-4.477,10-10v-118
			C239.001,245.479,234.524,241.002,229.001,241.002z M150.001,359.002h-49v-39h49V359.002z M150.001,300.002h-49v-39h49V300.002z
			 M219.001,359.002h-49v-39h49V359.002z M219.001,300.002h-49v-39h49V300.002z"/>
	</g>
</g>
<g>
</g>
<g>
</g>
<g>
</g>
<g>
</g>
<g>
</g>
<g>
</g>
<g>
</g>
<g>
</g>
<g>
</g>
<g>
</g>
<g>
</g>
<g>
</g>
<g>
</g>
<g>
</g>
<g>
</g>
</svg>
